<?xml version="1.0" encoding="UTF-8" standalone="no"?>
<svg width="103px" height="16px" viewBox="0 0 103 16" version="1.1" xmlns="http://www.w3.org/2000/svg" xmlns:xlink="http://www.w3.org/1999/xlink">
    <!-- Generator: Sketch 39.1 (31720) - http://www.bohemiancoding.com/sketch -->
    <title>Logo</title>
    <desc>Created with Sketch.</desc>
    <defs></defs>
    <g id="Symbols" stroke="none" stroke-width="1" fill="none" fill-rule="evenodd">
        <g id="Logo">
            <g id="Page-1">
                <polygon id="Fill-1" fill="#050013" points="9.38089831 -5.08474586e-05 5.71683051 9.6609661 2.20861017 0.654355932 5.08474577e-05 0.654355932 5.72598305 14.9920678 9.33767797 5.43732203 12.8029322 14.9839322 18.8240339 0.654355932 16.617 0.654355932 12.8911525 9.6609661"></polygon>
                <g id="Group-10" transform="translate(26.186441, 0.246280)">
                    <path d="M2.14611864,7.10674576 C2.14611864,8.59301695 2.64569492,9.81844068 3.64713559,10.7786949 C4.6419661,11.736661 5.79086441,12.2158983 7.09332203,12.2158983 C8.50866102,12.2158983 9.70154237,11.7262373 10.6712034,10.752 C11.6441695,9.76377966 12.1295085,8.56022034 12.1295085,7.14055932 C12.1295085,5.70488136 11.6502712,4.50183051 10.6900169,3.53191525 C9.73662712,2.55335593 8.55416949,2.06420339 7.14569492,2.06420339 C5.74383051,2.06420339 4.56111864,2.55335593 3.59349153,3.53191525 C2.62866102,4.49674576 2.14611864,5.68962712 2.14611864,7.10674576 M0.0946779661,7.08437288 C0.0946779661,5.18801695 0.789508475,3.55937288 2.18120339,2.19767797 C3.56527119,0.836237288 5.22950847,0.154881356 7.17289831,0.154881356 C9.09289831,0.154881356 10.739339,0.841067797 12.1112034,2.21471186 C13.4904407,3.58962712 14.179678,5.23759322 14.179678,7.16394915 C14.179678,9.10098305 13.4884068,10.7436102 12.1023051,12.0925932 C10.7126441,13.4502203 9.03467797,14.1275085 7.06764407,14.1275085 C5.32815254,14.1275085 3.76586441,13.5267458 2.38357627,12.3206441 C0.85840678,10.9892034 0.0946779661,9.24335593 0.0946779661,7.08437288" id="Fill-2" fill="#00ADEE"></path>
                    <polygon id="Fill-4" fill="#050013" points="27.2027542 0.408177966 27.2027542 11.9729237 31.1642797 11.9729237 31.1642797 13.8837712 25.1693644 13.8837712 25.1693644 0.408177966"></polygon>
                    <path d="M44.2302203,7.10674576 C44.2302203,8.59301695 44.7297966,9.81844068 45.7302203,10.7786949 C46.7242881,11.736661 47.8749661,12.2158983 49.1779322,12.2158983 C50.5902203,12.2158983 51.7843729,11.7262373 52.7560678,10.752 C53.7282712,9.76377966 54.2141186,8.56022034 54.2141186,7.14055932 C54.2141186,5.70488136 53.7338644,4.50183051 52.7733559,3.53191525 C51.8181864,2.55335593 50.6382712,2.06420339 49.2310678,2.06420339 C47.8281864,2.06420339 46.6439492,2.55335593 45.6781017,3.53191525 C44.7127627,4.49674576 44.2302203,5.68962712 44.2302203,7.10674576 M42.1790339,7.08437288 C42.1790339,5.18801695 42.8731017,3.55937288 44.2635254,2.19767797 C45.6488644,0.836237288 47.3128475,0.154881356 49.2572542,0.154881356 C51.177,0.154881356 52.822678,0.841067797 54.1970847,2.21471186 C55.5745424,3.58962712 56.2637797,5.23759322 56.2637797,7.16394915 C56.2637797,9.10098305 55.5714915,10.7436102 54.186661,12.0925932 C52.7967458,13.4502203 51.1185254,14.1275085 49.1514915,14.1275085 C47.4112373,14.1275085 45.8494576,13.5267458 44.4646271,12.3206441 C42.9397119,10.9892034 42.1790339,9.24335593 42.1790339,7.08437288" id="Fill-6" fill="#A5CD39"></path>
                    <polygon id="Fill-8" fill="#050013" points="69.4513475 6.83908475 65.7415169 0.408152542 68.0530424 0.408152542 70.6297373 4.9719661 73.3335508 0.408152542 75.6633814 0.408152542 71.7806695 6.83908475 75.8568559 13.8837458 73.5771102 13.8837458 70.5933814 8.7260339 67.5221949 13.8837458 65.2172797 13.8837458"></polygon>
                </g>
            </g>
        </g>
    </g>
</svg>